# xmcd
#
# Track frame offsets:
# 150
# 14034
# 28273
# 46207
# 61816
# 74444
# 87288
# 101731
# 116128
# 128927
# 140934
# 153955
# 165983
# 179627
# 194430
# 207733
# 220243
# 233190
# 247385
# 262363
#
# Disc length: 3692 seconds
#
#
# Revision: 1
# Processed by: cddbd v1.5.1PL0 Copyright (c) Steve Scherf et al.
# Submitted via: FreeRIP 2.90 
#
DISCID=460e6a14
DTITLE=Teodoro e Sampaio - AS20 MAIS
DYEAR=1900
DGENRE=Country
TTITLE0=Alo Mulherada
TTITLE1=Se a casa cair
TTITLE2=Paixão proibida
TTITLE3=A solteirona
TTITLE4=É mentira dela
TTITLE5=Cerca de espinhos
TTITLE6=A gostosona
TTITLE7=Tadinha da minha secretária
TTITLE8=Pinga na véia
TTITLE9=Aqui pra ela
TTITLE10=Vestido de seda
TTITLE11=Garanhão da madrugada
TTITLE12=Mulher chorona
TTITLE13=Coração blindado
TTITLE14=Tontão
TTITLE15=Só dou carona pra quem deu pra mim
TTITLE16=Filha da Tuta
TTITLE17=Peão azarado
TTITLE18=Campeão do milenio
TTITLE19=Vai chover mulher
EXTD=
EXTT0=
EXTT1=
EXTT2=
EXTT3=
EXTT4=
EXTT5=
EXTT6=
EXTT7=
EXTT8=
EXTT9=
EXTT10=
EXTT11=
EXTT12=
EXTT13=
EXTT14=
EXTT15=
EXTT16=
EXTT17=
EXTT18=
EXTT19=
PLAYORDER=
